<?xml version="1.0" encoding="utf-8"?>
<!-- Generator: Adobe Illustrator 19.0.0, SVG Export Plug-In . SVG Version: 6.00 Build 0)  -->
<svg version="1.1" id="Layer_1" xmlns="http://www.w3.org/2000/svg" xmlns:xlink="http://www.w3.org/1999/xlink" x="0px" y="0px"
	 viewBox="0 0 400 400" style="enable-background:new 0 0 400 400;" xml:space="preserve">
<style type="text/css">
	.st0{font-family:'SegoeUI-Bold';}
	.st1{font-size:79.7321px;}
	.st2{font-size:163.4697px;}
	.st3{font-size:65.1709px;}
	.st4{font-size:20.2757px;}
	.st5{font-size:24.316px;}
	.st6{font-size:50.9296px;}
	.st7{font-size:65.8453px;}
	.st8{font-size:21px;}
	.st9{font-size:34.1871px;}
	.st10{font-size:99.2313px;}
	.st11{font-size:13.9977px;}
	.st12{font-size:54.8346px;}
	.st13{font-size:15.2743px;}
	.st14{font-size:30.9909px;}
	.st15{font-size:18.7587px;}
	.st16{font-size:16.5275px;}
	.st17{font-size:15.1399px;}
	.st18{font-size:17.5856px;}
	.st19{font-size:17.0463px;}
	.st20{font-size:15.4711px;}
</style>
<text id="XMLID_2_" transform="matrix(1 0 0 1 0.5005 67.9053)" class="st0 st1">All Clothes</text>
<text id="XMLID_3_" transform="matrix(1.0012 0 0 1 -17 187.4097)" class="st0 st2">100%</text>
<text id="XMLID_4_" transform="matrix(1 0 0 1 -1.9993 329.0493)" class="st0 st3">organic</text>
<text id="XMLID_5_" transform="matrix(1 0 0 1 7.629395e-005 215.8841)" class="st0 st4">animalproduct free</text>
<text id="XMLID_6_" transform="matrix(1.027982e-003 1 -1 1.027982e-003 381.658 315.0321)" class="st0 st5">organic</text>
<text id="XMLID_9_" transform="matrix(1 0 0 1 201.9989 382.7773)" class="st0 st6">felxible</text>
<text id="XMLID_7_" transform="matrix(1 0 0 1 301.916 246.6211)" class="st0 st7">hip</text>
<text id="XMLID_8_" transform="matrix(1 0 0 1 262.3335 400)" class="st0 st8">confortable</text>
<text id="XMLID_10_" transform="matrix(1 0 0 1 105.6665 343.9997)" class="st0 st8">awesome</text>
<text id="XMLID_11_" transform="matrix(1 0 0 1 -1.335 358.6465)" class="st0 st9">epic</text>
<text id="XMLID_12_" transform="matrix(1 0 0 1 -4.725007e-004 269.8409)" class="st0 st10">vegan</text>
<text id="XMLID_13_" transform="matrix(0.9152 0 0 1 242.6367 281.7139)"><tspan x="0" y="0" class="st0 st11">get extra sence of self-</tspan><tspan x="0" y="16.8" class="st0 st11">worth after each purchase</tspan></text>
<text id="XMLID_14_" transform="matrix(1 0 0 1 235.6665 333.4279)" class="st0 st12">sexy</text>
<text id="XMLID_15_" transform="matrix(1 0 0 1 -1.3335 382.4658)" class="st0 st13">10/10 hipsters recommend</text>
<text id="XMLID_16_" transform="matrix(1 0 0 1 81.2967 368.1602)" class="st0 st14">humane</text>
<text id="XMLID_17_" transform="matrix(1 0 0 1 16.9636 289.0954)" class="st0 st15">humane</text>
<text id="XMLID_18_" transform="matrix(1 0 0 1 342.9985 337.5858)" class="st0 st16">epic</text>
<text id="XMLID_19_" transform="matrix(1 0 0 1 191.3332 216.1906)" class="st0 st17">awesome</text>
<text id="XMLID_20_" transform="matrix(1.020628e-002 0.9999 -0.9999 1.020628e-002 284.512 208.8584)" class="st0 st18">felxible</text>
<text id="XMLID_21_" transform="matrix(1 0 0 1 186.0001 400)" class="st0 st19">fantastic</text>
<text id="XMLID_23_" transform="matrix(1 0 0 1 122 400)" class="st0 st20">flawless</text>
<text id="XMLID_24_" transform="matrix(1 0 0 1 -1 400)" class="st0 st20">made in sweden</text>
</svg>
